<?xml version="1.0" encoding="utf-8"?>
<!-- Generator: Adobe Illustrator 14.0.0, SVG Export Plug-In . SVG Version: 6.00 Build 43363)  -->
<!DOCTYPE svg PUBLIC "-//W3C//DTD SVG 1.0//EN" "http://www.w3.org/TR/2001/REC-SVG-20010904/DTD/svg10.dtd">
<svg version="1.0" id="Calque_1" xmlns="http://www.w3.org/2000/svg" xmlns:xlink="http://www.w3.org/1999/xlink" x="0px" y="0px"
	 width="383.51px" height="287.57px" viewBox="0 0 383.51 287.57" enable-background="new 0 0 383.51 287.57" xml:space="preserve">
<path fill="#8C8B84" d="M362.07,189.997c0,0,24.5-22.338,21.12-42.943c-3.371-20.611-14.948-23.438-14.948-23.438
	s0-35.568-35.287-42.348c-35.292-6.773-40.052-2.375-40.052-2.375s-5.329-43.954-28.207-57.381
	c-24.008-14.091-71.382-1.752-81.108,35.401c-8.268,31.6,16.345,61.463,37.979,69.877c22.321,8.678,46.245,3.844,46.245,3.844
	s-1.899,16.162,30.134,28.838c16.604,6.568,25.811,1.912,25.811,1.912s5.226,25.787,9.743,28.613H362.07z"/>
<path fill="#8C8B84" d="M233.499,287.212c0,0-5.283,1.295-19.399-1.041c-20.604-3.412-22.466-16.371-22.466-16.371
	s-35.502-2.205-40.082-37.844c-4.574-35.643,0.111-40.121,0.111-40.121s-43.539-8.041-55.523-31.707
	c-12.577-24.836,2.673-71.354,40.356-78.76c32.051-6.295,60.333,20.121,67.391,42.232c7.278,22.816,0.972,46.395,0.972,46.395
	s16.249-0.893,26.915,31.863c5.527,16.98,0.312,25.879,0.312,25.879s27.444,54.791,29.985,59.475H233.499z"/>
<path fill="#8C8B84" d="M191.605,160.847c0,0,13.017-9.033,9.637-29.639c-3.371-20.611-14.948-23.438-14.948-23.438
	s0-35.57-35.287-42.35c-35.292-6.773-40.052-2.373-40.052-2.373s-5.329-43.955-28.207-57.382C58.74-8.425,11.366,3.914,1.639,41.066
	c-8.268,31.599,16.345,61.464,37.979,69.878c22.321,8.678,46.245,3.842,46.245,3.842s-1.899,16.164,30.134,28.838
	c16.604,6.568,25.811,1.914,25.811,1.914s1.641,12.482,6.158,15.309H191.605z"/>
<path fill="#8C8B84" d="M311.42,233.37c0,0-5.898-44.738-9.278-65.344c-3.371-20.611-14.948-23.438-14.948-23.438
	s0-35.57-35.287-42.35c-35.292-6.773-40.052-2.373-40.052-2.373s-5.329-43.955-28.207-57.382
	c-24.008-14.091-71.382-1.752-81.108,35.4c-8.268,31.6,16.345,61.465,37.979,69.879c22.321,8.678,46.245,3.842,46.245,3.842
	s-1.899,16.164,30.134,28.838c16.604,6.568,25.811,1.914,25.811,1.914s15.839,32.016,40.142,51.014H311.42z"/>
</svg>
