<?xml version="1.0" encoding="utf-8"?>
<!-- Generator: Adobe Illustrator 14.0.0, SVG Export Plug-In . SVG Version: 6.00 Build 43363)  -->
<!DOCTYPE svg PUBLIC "-//W3C//DTD SVG 1.0//EN" "http://www.w3.org/TR/2001/REC-SVG-20010904/DTD/svg10.dtd">
<svg version="1.0" id="Calque_1" xmlns="http://www.w3.org/2000/svg" xmlns:xlink="http://www.w3.org/1999/xlink" x="0px" y="0px"
	 width="307.161px" height="262.76px" viewBox="0 0 307.161 262.76" enable-background="new 0 0 307.161 262.76"
	 xml:space="preserve">
<polygon fill="#AFACA3" points="267.661,158.946 266.258,158.946 266.258,133.473 221.719,158.946 220.315,158.946 220.315,133.473 
	175.777,158.946 174.374,158.946 174.374,133.473 129.836,158.946 128.571,158.946 128.571,0 100,0 100,158.946 77.922,158.946 
	77.922,43.373 49.351,43.373 49.351,209.199 28.571,209.199 28.571,97.573 0,97.573 0,209.199 0,259.837 0,262.76 307.161,262.76 
	307.161,230.917 307.161,209.199 307.161,172.935 307.161,158.946 307.161,136.354 "/>
<circle fill="#FFFFFF" cx="260.28" cy="211.247" r="8.302"/>
<circle fill="#343434" cx="260.28" cy="211.247" r="7.941"/>
<circle cx="260.28" cy="211.247" r="4.628"/>
</svg>
