<?xml version="1.0" encoding="utf-8"?>
<!-- Generator: Adobe Illustrator 14.0.0, SVG Export Plug-In . SVG Version: 6.00 Build 43363)  -->
<!DOCTYPE svg PUBLIC "-//W3C//DTD SVG 1.0//EN" "http://www.w3.org/TR/2001/REC-SVG-20010904/DTD/svg10.dtd">
<svg version="1.0" id="Calque_1" xmlns="http://www.w3.org/2000/svg" xmlns:xlink="http://www.w3.org/1999/xlink" x="0px" y="0px"
	 width="967px" height="811.89px" viewBox="0 0 967 811.89" enable-background="new 0 0 967 811.89" xml:space="preserve">
<path fill="#8C8B84" d="M838.53,519.571c-3.371-20.611-14.948-23.438-14.948-23.438s-0.001-15.336-9.991-27.787
	c10.153-21.728,23.599-59.352,20.409-101.457c-5-66-66.096-65-66.096-65s30.096-38-10.652-70s-80.305-20.545-80.305-20.545
	S616,146.89,519.874,135.26s-78.97,41.63-78.97,41.63s-89.904-40-139.398-37s-59.506,42-59.506,42s-81-8-111,29.455
	s6,61.545,6,61.545s-44,64-30,106s65,30.446,65,30.446s19,63.554,134,98.275c86.973,26.26,152.634-9.914,179.479-29.109
	c3.15,2.06,6.345,3.741,9.479,4.96c22.321,8.678,46.245,3.842,46.245,3.842s-0.755,6.549,6.941,14.575
	c-2.02,11.171-0.98,22.245,3.335,30.767c11.984,23.666,55.523,31.707,55.523,31.707s-4.686,4.479-0.111,40.121
	c4.58,35.639,40.082,37.844,40.082,37.844s1.861,12.959,22.466,16.371c14.116,2.336,19.399,1.041,19.399,1.041h28.571
	c-2.541-4.684-29.985-59.475-29.985-59.475s5.216-8.898-0.312-25.879c-2.812-8.635-6.012-14.914-9.199-19.505
	c13.011,3.6,20.134,0.003,20.134,0.003s15.839,32.016,40.142,51.014h28.571c0,0-5.898-44.738-9.278-65.344
	c-0.476-2.908-1.119-5.451-1.865-7.693c15.129,5.264,23.479,1.051,23.479,1.051s5.226,25.787,9.743,28.613h28.571
	C817.41,562.515,841.91,540.177,838.53,519.571z"/>
</svg>
