<?xml version="1.0" encoding="utf-8"?>
<!-- Generator: Adobe Illustrator 14.0.0, SVG Export Plug-In . SVG Version: 6.00 Build 43363)  -->
<!DOCTYPE svg PUBLIC "-//W3C//DTD SVG 1.0//EN" "http://www.w3.org/TR/2001/REC-SVG-20010904/DTD/svg10.dtd">
<svg version="1.0" id="Calque_1" xmlns="http://www.w3.org/2000/svg" xmlns:xlink="http://www.w3.org/1999/xlink" x="0px" y="0px"
	 width="392px" height="297px" viewBox="0 0 392 297" enable-background="new 0 0 392 297" xml:space="preserve">
<path fill="#8C8B84" d="M387.53,151.571c-3.366-20.611-14.928-23.438-14.928-23.438s0-35.568-35.24-42.348
	c-35.245-6.773-39.999-2.375-39.999-2.375s-5.321-43.954-28.169-57.381c-21.353-12.549-61.19-4.117-76.519,24.117
	c-1.396-1.173-2.867-2.232-4.421-3.146c-19.839-11.66-55.635-5.205-72.907,18.412c-1.411-8.978-8.042-43.583-27.859-55.23
	c-23.976-14.091-71.287-1.752-81,35.4c-8.257,31.599,16.323,61.464,37.928,69.878c22.292,8.678,46.184,3.842,46.184,3.842
	s-0.754,6.548,6.932,14.575c-2.016,11.171-0.979,22.245,3.331,30.767c11.969,23.666,55.45,31.707,55.45,31.707
	s-4.679,4.479-0.111,40.121c4.574,35.639,40.028,37.844,40.028,37.844s1.859,12.959,22.437,16.371
	c14.097,2.336,19.373,1.041,19.373,1.041h28.533c-2.537-4.684-29.945-59.475-29.945-59.475s5.209-8.898-0.311-25.879
	c-2.809-8.635-6.004-14.914-9.188-19.505c12.993,3.6,20.107,0.003,20.107,0.003s15.817,32.016,40.088,51.014h28.533
	c0,0-5.891-44.738-9.266-65.344c-0.476-2.908-1.118-5.451-1.863-7.693c15.109,5.264,23.447,1.051,23.447,1.051
	s5.219,25.787,9.73,28.613h28.533C366.438,194.515,390.906,172.177,387.53,151.571z"/>
</svg>
